#!OML:ASF E:\CV Data\Top Level 1\Subject 1\Session 1\player.ASF
:FULLY-SPECIFIED
:DEGREES
382
root 7.76913 15.1636 -2.1705 -38.0509 -101.617 7.67703
lowerback 22.3101 0.302438 5.45961
upperback 8.07275 0.986642 4.14248
thorax -3.5643 0.160077 1.12388
lowerneck -18.9018 15.7516 -4.57954
upperneck 26.0421 22.3295 4.67014
head 10.318 10.2605 5.28876
rclavicle -2.76311e-014 -8.26944e-014
rhumerus -94.466 -60.7907 27.1878
rradius 22.1028
rwrist -33.0565
rhand -37.353 -13.069
rfingers 7.12502
rthumb -10.4151 -42.791
lclavicle -2.76311e-014 -8.26944e-014
lhumerus 20.4741 -23.8118 -9.62481
lradius 22.8444
lwrist -4.59427
lhand -25.4881 7.43338
lfingers 7.12502
lthumb 1.04018 37.4106
rfemur 9.34334 4.83035 16.0037
rtibia 58.9392
rfoot -36.999 -6.01258
rtoes -12.1871
lfemur -67.516 24.0345 2.32505
ltibia 22.6662
lfoot -1.52134 10.9388
ltoes -9.39112
383
root 7.74262 15.1606 -2.10195 -40.0519 -100.876 10.3978
lowerback 22.2424 0.144315 5.3701
upperback 7.90262 0.791059 4.2207
thorax -3.72301 0.0657815 1.30742
lowerneck -18.8574 15.7426 -4.59677
upperneck 25.7405 22.3551 4.47037
head 10.2253 10.2642 5.20233
rclavicle -1.17283e-014 -4.29375e-014
rhumerus -95.2041 -60.1963 29.9605
rradius 23.0609
rwrist -34.9114
rhand -37.7397 -13.2653
rfingers 7.12502
rthumb -10.7882 -42.9682
lclavicle -1.17283e-014 -4.29375e-014
lhumerus 18.8435 -23.9292 -10.0683
lradius 22.7766
lwrist -5.41528
lhand -25.3209 7.48262
lfingers 7.12502
lthumb 1.20161 37.459
rfemur 8.88733 4.2624 15.7399
rtibia 58.8763
rfoot -37.0783 -6.22118
rtoes -12.4732
lfemur -67.1113 24.0448 2.39792
ltibia 22.8043
lfoot -1.68545 11.0926
ltoes -9.59473
384
root 7.71397 15.1575 -2.03195 -42.4701 -100.156 13.5464
lowerback 22.1575 -0.0204698 5.27992
upperback 7.7156 0.588028 4.2971
thorax -3.89005 -0.0311412 1.49172
lowerneck -18.8034 15.7335 -4.60795
upperneck 25.4635 22.3696 4.30326
head 10.1368 10.2666 5.12557
rclavicle -2.77802e-014 9.54166e-015
rhumerus -95.3821 -59.6826 32.1416
rradius 24.0051
rwrist -36.4385
rhand -37.881 -13.3163
rfingers 7.12502
rthumb -10.9245 -43.0121
lclavicle -2.77802e-014 9.54166e-015
lhumerus 17.1999 -24.0285 -10.4567
lradius 22.7081
lwrist -6.27249
lhand -25.1363 7.54398
lfingers 7.12502
lthumb 1.37993 37.5193
rfemur 8.44236 3.69156 15.4908
rtibia 58.8016
rfoot -37.1548 -6.43348
rtoes -12.7774
lfemur -66.7095 24.0704 2.47606
ltibia 22.9611
lfoot -1.84498 11.2726
ltoes -9.83041
385
root 7.68341 15.1544 -1.96076 -45.3228 -99.4578 17.1297
lowerback 22.0602 -0.186972 5.17341
upperback 7.52082 0.379569 4.37523
thorax -4.05802 -0.130101 1.68893
lowerneck -18.7595 15.715 -4.65635
upperneck 25.2139 22.3692 4.18764
head 10.0493 10.2646 5.07043
rclavicle -1.18774e-014 4.92986e-014
rhumerus -94.9437 -59.2544 33.7095
rradius 24.8893
rwrist -37.8884
rhand -37.9334 -13.2491
rfingers 7.12502
rthumb -10.9751 -42.9422
lclavicle -1.18774e-014 4.92986e-014
lhumerus 15.5432 -24.1426 -10.7991
lradius 22.6419
lwrist -7.05295
lhand -24.9727 7.61696
lfingers 7.12502
lthumb 1.53797 37.5912
rfemur 8.0177 3.1277 15.2491
rtibia 58.7132
rfoot -37.2242 -6.65914
rtoes -13.1008
lfemur -66.3025 24.1105 2.55495
ltibia 23.1442
lfoot -2.01413 11.4977
ltoes -10.0574
386
root 7.65031 15.1515 -1.88821 -48.7006 -98.7883 21.2401
lowerback 21.9418 -0.360985 5.04624
upperback 7.32028 0.156202 4.45777
thorax -4.22016 -0.235746 1.90656
lowerneck -18.7282 15.7007 -4.7296
upperneck 24.9863 22.3739 4.10851
head 9.96382 10.2666 5.03272
rclavicle 7.65321e-015 -4.29375e-014
rhumerus -94.1545 -58.9249 34.9111
rradius 25.8314
rwrist -39.3192
rhand -38.013 -13.2318
rfingers 7.12502
rthumb -11.0518 -42.9208
lclavicle 7.65321e-015 -4.29375e-014
lhumerus 13.8393 -24.1785 -11.0294
lradius 22.5562
lwrist -7.8181
lhand -24.8008 7.67727
lfingers 7.12502
lthumb 1.70393 37.6502
rfemur 7.61759 2.57199 15.0143
rtibia 58.608
rfoot -37.2876 -6.90088
rtoes -13.4449
lfemur -65.9028 24.1747 2.61306
ltibia 23.361
lfoot -2.1851 11.7601
ltoes -10.3007
387
root 7.61494 15.1486 -1.81428 -52.6906 -98.1524 25.9643
lowerback 21.8002 -0.539503 4.90123
upperback 7.11587 -0.0780217 4.54011
thorax -4.37264 -0.345824 2.13678
lowerneck -18.7045 15.6837 -4.83521
upperneck 24.7753 22.3762 4.06257
head 9.87748 10.2683 5.01041
rclavicle -3.23025e-015 -7.95139e-015
rhumerus -93.1871 -58.6848 35.9728
rradius 26.7854
rwrist -40.7743
rhand -38.0816 -13.1281
rfingers 7.12502
rthumb -11.118 -42.8136
lclavicle -3.23025e-015 -7.95139e-015
lhumerus 12.111 -24.1551 -11.1707
lradius 22.4529
lwrist -8.5333
lhand -24.647 7.7245
lfingers 7.12502
lthumb 1.85251 37.6962
rfemur 7.24203 2.02778 14.7855
rtibia 58.4867
rfoot -37.3448 -7.16599
rtoes -13.8182
lfemur -65.5189 24.2756 2.6334
ltibia 23.6103
lfoot -2.36539 12.0499
ltoes -10.4129
388
root 7.57754 15.1454 -1.73867 -57.3731 -97.5656 31.3848
lowerback 21.642 -0.726416 4.73344
upperback 6.90428 -0.328459 4.62028
thorax -4.52199 -0.46298 2.3816
lowerneck -18.6897 15.6745 -4.94768
upperneck 24.5776 22.3884 4.03298
head 9.79415 10.2753 4.99675
rclavicle -9.74045e-015 6.04305e-014
rhumerus -92.1629 -58.5497 37.0304
rradius 27.7633
rwrist -42.2507
rhand -38.2961 -13.0396
rfingers 7.12502
rthumb -11.3248 -42.7138
lclavicle -9.74045e-015 6.04305e-014
lhumerus 10.3421 -24.0712 -11.2283
lradius 22.3273
lwrist -9.23274
lhand -24.5238 7.76107
lfingers 7.12502
lthumb 1.97144 37.7317
rfemur 6.8859 1.50442 14.5654
rtibia 58.3503
rfoot -37.3928 -7.45452
rtoes -14.2212
lfemur -65.1477 24.413 2.62545
ltibia 23.892
lfoot -2.5362 12.362
ltoes -10.4645
389
root 7.5381 15.1417 -1.66092 -62.8764 -97.0562 37.6239
lowerback 21.4789 -0.924871 4.56017
upperback 6.68459 -0.594944 4.70231
thorax -4.67453 -0.587341 2.63581
lowerneck -18.6807 15.6732 -5.0795
upperneck 24.3955 22.4157 4.0137
head 9.71309 10.288 4.99153
rclavicle -1.49089e-015 3.65764e-014
rhumerus -91.0623 -58.5221 38.0773
rradius 28.7464
rwrist -43.7515
rhand -38.436 -12.8127
rfingers 7.12502
rthumb -11.4598 -42.4795
lclavicle -1.49089e-015 3.65764e-014
lhumerus 8.53452 -23.957 -11.2142
lradius 22.1806
lwrist -9.92505
lhand -24.4406 7.80401
lfingers 7.12502
lthumb 2.05183 37.7739
rfemur 6.55371 1.00663 14.3685
rtibia 58.198
rfoot -37.4303 -7.76351
rtoes -14.6569
lfemur -64.7792 24.5818 2.61878
ltibia 24.2054
lfoot -2.68677 12.6992
ltoes -10.4456
390
root 7.4963 15.1374 -1.5808 -69.2499 -96.6378 44.726
lowerback 21.3131 -1.13349 4.37757
upperback 6.45738 -0.87646 4.78377
thorax -4.83038 -0.71829 2.89874
lowerneck -18.6777 15.6792 -5.19828
upperneck 24.2314 22.4537 3.98418
head 9.64215 10.3038 4.985
rclavicle 2.40529e-014 6.36111e-015
rhumerus -89.8284 -58.5792 39.0095
rradius 29.7641
rwrist -45.2787
rhand -38.5557 -12.5349
rfingers 7.12502
rthumb -11.5752 -42.1952
lclavicle 2.40529e-014 6.36111e-015
lhumerus 6.69557 -23.8026 -11.1368
lradius 22.0156
lwrist -10.6578
lhand -24.3565 7.86727
lfingers 7.12502
lthumb 2.13302 37.8364
rfemur 6.25325 0.532369 14.1904
rtibia 58.0301
rfoot -37.4595 -8.09057
rtoes -15.1159
lfemur -64.4192 24.7931 2.59567
ltibia 24.5469
lfoot -2.82055 13.0201
ltoes -10.3388
391
root 7.45195 15.1325 -1.49796 -76.4393 -96.3457 52.632
lowerback 21.1495 -1.34853 4.22105
upperback 6.21953 -1.16021 4.86172
thorax -4.99594 -0.849454 3.14418
lowerneck -18.6816 15.6771 -5.32935
upperneck 24.0845 22.4824 3.96579
head 9.5762 10.3144 4.98428
rclavicle 1.84124e-014 6.04305e-014
rhumerus -88.3881 -58.671 39.7208
rradius 30.8243
rwrist -46.8155
rhand -38.5183 -12.145
rfingers 7.12502
rthumb -11.5391 -41.8074
lclavicle 1.84124e-014 6.04305e-014
lhumerus 4.87164 -23.7305 -11.0538
lradius 21.8544
lwrist -11.3441
lhand -24.2397 7.99795
lfingers 7.12502
lthumb 2.24588 37.9659
rfemur 5.9896 0.0873994 14.0469
rtibia 57.8438
rfoot -37.4805 -8.43094
rtoes -15.5772
lfemur -64.0501 25.0255 2.60793
ltibia 24.9182
lfoot -2.93154 13.3478
ltoes -10.1914
392
root 7.40539 15.1268 -1.41224 -84.2114 -96.172 61.1011
lowerback 21.0014 -1.56289 4.06948
upperback 5.96934 -1.44021 4.92833
thorax -5.18039 -0.977639 3.3748
lowerneck -18.7046 15.6728 -5.43771
upperneck 23.995 22.5022 3.96442
head 9.53486 10.3205 4.99202
rclavicle -3.62534e-014 5.40694e-014
rhumerus -86.7438 -58.768 40.2062
rradius 31.9173
rwrist -48.2795
rhand -38.3502 -11.669
rfingers 7.12502
rthumb -11.377 -41.3403
lclavicle -3.62534e-014 5.40694e-014
lhumerus 3.07496 -23.6771 -10.9427
lradius 21.6968
lwrist -12.0834
lhand -24.0802 8.18819
lfingers 7.12502
lthumb 2.39986 38.1544
rfemur 5.76478 -0.338271 13.9067
rtibia 57.646
rfoot -37.4918 -8.79645
rtoes -16.0752
lfemur -63.6678 25.2824 2.61503
ltibia 25.3032
lfoot -3.01634 13.6467
ltoes -10.0462
393
root 7.3567 15.1206 -1.32342 -92.3235 -96.125 69.8827
lowerback 20.8681 -1.77055 3.94021
upperback 5.71112 -1.70587 4.97377
thorax -5.38025 -1.09758 3.56743
lowerneck -18.7404 15.6554 -5.5206
upperneck 23.9613 22.4939 3.98982
head 9.51634 10.315 5.00828
rclavicle -2.23881e-014 -1.19271e-014
rhumerus -84.8858 -58.8106 40.4344
rradius 33.0309
rwrist -49.6144
rhand -37.9993 -11.1369
rfingers 7.12502
rthumb -11.0386 -40.8266
lclavicle -2.23881e-014 -1.19271e-014
lhumerus 1.34729 -23.7273 -10.8419
lradius 21.5675
lwrist -12.7938
lhand -23.8747 8.46273
lfingers 7.12502
lthumb 2.59834 38.4266
rfemur 5.58738 -0.748733 13.7648
rtibia 57.4379
rfoot -37.4952 -9.18975
rtoes -16.6073
lfemur -63.2501 25.5339 2.64443
ltibia 25.691
lfoot -3.07648 13.9396
ltoes -9.91025
394
root 7.30687 15.1125 -1.23207 -100.404 -96.2401 78.6107
lowerback 20.7656 -1.97147 3.85154
upperback 5.43884 -1.95162 5.00763
thorax -5.61159 -1.20698 3.72206
lowerneck -18.7733 15.6276 -5.55987
upperneck 23.9509 22.4582 4.02262
head 9.51114 10.2997 5.02126
rclavicle 4.4652e-014 -3.81667e-014
rhumerus -82.815 -58.7627 40.3724
rradius 34.1968
rwrist -50.7881
rhand -37.5641 -10.5988
rfingers 7.12502
rthumb -10.6188 -40.3105
lclavicle 4.4652e-014 -3.81667e-014
lhumerus -0.300778 -23.7785 -10.728
lradius 21.4496
lwrist -13.5729
lhand -23.5956 8.77434
lfingers 7.12502
lthumb 2.86789 38.7348
rfemur 5.43469 -1.1412 13.6662
rtibia 57.2323
rfoot -37.482 -9.63113
rtoes -17.1695
lfemur -62.791 25.7617 2.75086
ltibia 26.0611
lfoot -3.10013 14.2387
ltoes -9.78747
